<?xml version="1.0" encoding="utf-8"?>
<!-- Generator: Adobe Illustrator 28.3.0, SVG Export Plug-In . SVG Version: 6.00 Build 0)  -->
<svg version="1.1" id="Layer_1" xmlns="http://www.w3.org/2000/svg" xmlns:xlink="http://www.w3.org/1999/xlink" x="0px" y="0px"
	 viewBox="0 0 40 50" style="enable-background:new 0 0 40 50;" xml:space="preserve">
<style type="text/css">
	.st0{fill-rule:evenodd;clip-rule:evenodd;fill:#FFFFFF;}
</style>
<path class="st0" d="M30,38c0.5,0,1,0.5,1,1s-0.5,1-1,1s-1-0.5-1-1S29.5,38,30,38L30,38z M18.5,35c-1.4,0-2.5,1.1-2.5,2.5
	s1.1,2.5,2.5,2.5s2.5-1.1,2.5-2.5S19.9,35,18.5,35L18.5,35z M21,22.6l-0.7-1.1c-0.3-0.5-0.9-0.6-1.4-0.3c-0.5,0.3-0.6,0.9-0.3,1.4
	l1.1,1.9c-0.2,0.1-0.5,0.1-0.8,0.1c0,0-0.1,0-0.1,0l-1.2-2c-0.3-0.5-0.9-0.6-1.4-0.3c-0.5,0.3-0.6,0.9-0.3,1.4l1.3,2.2
	c-0.3,0.2-0.6,0.4-0.9,0.5l-1.1-1.8c-0.3-0.5-0.9-0.6-1.4-0.3c-0.5,0.3-0.6,0.9-0.3,1.4l0.6,1c-0.5-0.1-1-0.3-1.5-0.5
	c-0.4-0.2-0.8-0.1-1.1,0.1c-1.1,1-2.3,2.1-3.3,3.4l-6.2-3.6c-0.2-0.1-0.5-0.2-0.8-0.1S0.9,26,0.8,26.3c-0.8,1.6-1,3.2-0.4,4.5
	c0.3,0.7,0.8,1.3,1.5,1.8c-0.4,1.1-0.5,2.1-0.2,3c0.3,1.1,1.1,2.1,2.4,2.9c0.2,0.2,0.5,0.2,0.8,0.1c0.3-0.1,0.5-0.2,0.6-0.5L9,31.9
	c6.5,2.4,12.9,2.1,17.6,0.8c0.4-0.1,0.8-0.2,1.2-0.3l-0.3,1.5c-0.1,0.5,0.2,1.1,0.8,1.2s1.1-0.2,1.2-0.8l0.2-1.1l0.8,0.9
	c0.4,0.4,1,0.5,1.4,0.1s0.5-1,0.1-1.4l-1.3-1.4c2.4-1.1,4.4-2.5,5.7-3.9c1.5-1.6,2.1-3.3,1.8-4.7s-1.7-2.5-3.9-3.2
	c-2.7-0.8-6.8-0.9-11.1,0.3c-0.5,0.1-1,0.3-1.5,0.5c-0.5,0.1-0.7,0.6-0.7,1.1C21.1,21.8,21.1,22.2,21,22.6L21,22.6L21,22.6z M9,36
	c0.6,0,1,0.5,1,1s-0.4,1-1,1s-1-0.5-1-1S8.5,36,9,36L9,36z M18.5,37c0.3,0,0.5,0.2,0.5,0.5S18.8,38,18.5,38S18,37.8,18,37.5
	S18.2,37,18.5,37L18.5,37z M37.5,32c-1.4,0-2.5,1.1-2.5,2.5s1.1,2.5,2.5,2.5s2.5-1.1,2.5-2.5S38.9,32,37.5,32L37.5,32z M7.2,31
	l-2.9,5c-0.4-0.3-0.6-0.7-0.8-1.2c-0.2-0.7,0-1.4,0.5-2.3c0.1-0.2,0.2-0.5,0.1-0.8s-0.3-0.5-0.5-0.6c-0.7-0.4-1.2-0.8-1.4-1.3
	c-0.2-0.5-0.2-1.1,0-1.8L7.2,31L7.2,31L7.2,31z M37.5,34c0.3,0,0.5,0.2,0.5,0.5S37.8,35,37.5,35S37,34.8,37,34.5S37.2,34,37.5,34
	L37.5,34z M28.9,21c-1.6,0.1-3.4,0.3-5.2,0.8c-0.2,0.1-0.4,0.1-0.7,0.2c0,1.4-0.3,2.4-0.8,3.1c-0.6,0.8-1.6,1.3-2.8,1.4
	c-1,1-2,1.6-3,1.8c-1.4,0.4-2.7,0.1-4-0.4l0,0c-0.8,0.7-1.5,1.5-2.2,2.3c5.9,2,11.6,1.7,15.9,0.5c1.8-0.5,3.5-1.2,4.9-1.9
	c-0.3-0.2-0.7-0.4-1-0.7c-0.9-0.7-1.7-1.6-2-2.7c-0.3-1.2-0.1-2.4,0.3-3.4C28.5,21.7,28.7,21.3,28.9,21L28.9,21L28.9,21z M31.4,21.1
	L31.4,21.1c0,0-0.7,0.7-1.1,1.8c-0.3,0.6-0.5,1.4-0.2,2.1c0.2,0.7,0.7,1.2,1.2,1.6c0.9,0.6,1.8,1,1.9,1c0.7-0.5,1.3-1,1.8-1.5
	c0.9-1,1.5-2,1.3-2.8c-0.2-0.8-1.2-1.4-2.5-1.8C33,21.3,32.2,21.1,31.4,21.1L31.4,21.1L31.4,21.1z M32.6,22.6
	c-0.5-0.3-1.1-0.1-1.4,0.4c-0.3,0.5-0.1,1.1,0.4,1.4c-0.3,0.5-0.1,1.1,0.4,1.4s1.1,0.1,1.4-0.4c0.5,0.3,1.1,0.1,1.4-0.4
	c0.3-0.5,0.1-1.1-0.4-1.4c0.3-0.5,0.1-1.1-0.4-1.4S32.9,22.1,32.6,22.6L32.6,22.6z M4.5,15C3.1,15,2,16.1,2,17.5S3.1,20,4.5,20
	S7,18.9,7,17.5S5.9,15,4.5,15L4.5,15z M4.5,17C4.8,17,5,17.2,5,17.5S4.8,18,4.5,18S4,17.8,4,17.5S4.2,17,4.5,17L4.5,17z M19,15
	c0.5,0,1,0.4,1,1c0,0.5-0.5,1-1,1s-1-0.5-1-1S18.5,15,19,15L19,15z M36,14c0.5,0,1,0.4,1,1s-0.5,1-1,1s-1-0.4-1-1S35.5,14,36,14
	L36,14z M37.2,10.8c0-0.1-0.1-0.2-0.1-0.2c-0.1-0.3-0.2-0.6-0.3-0.9c-0.3-0.8-0.8-1.5-1.6-2C34.6,7.2,33.9,7,33,7c-0.5,0-1,0.4-1,1
	c0,0,0,0.8-0.3,1.6c-0.2,0.6-0.6,1.1-1.5,0.9c-0.8-0.1-1.5-0.5-2.3-0.8C26.9,9.3,26,9,25,9c-0.9,0-1.6,0.4-2.4,0.9
	C21.8,10.3,21,11,20,11s-1.8-0.7-2.6-1.1C16.6,9.4,15.9,9,15,9c-1,0-2,0.5-3,1.1c-0.7,0.4-1.3,0.9-2,0.9c-0.4,0-0.7-0.1-1.1-0.3
	c-0.5-0.2-1-0.6-1.5-0.8C6.6,9.4,5.8,9,5,9c-0.6,0-1.3,0.2-2,0.5c-1.4,0.6-2.7,1.7-2.7,1.7c-0.4,0.3-0.5,1-0.2,1.4
	c0.3,0.4,1,0.5,1.4,0.2c0,0,0.8-0.7,1.8-1.2C4,11.3,4.5,11,5,11c0.6,0,1.2,0.5,1.9,0.9C8,12.5,9,13,10,13s2-0.5,3-1.1
	c0.7-0.4,1.3-0.9,2-0.9s1.2,0.4,1.8,0.9c1,0.6,2,1.1,3.2,1.1s2.2-0.6,3.2-1.1c0.6-0.4,1.2-0.9,1.8-0.9c0.7,0,1.4,0.3,2.1,0.6
	c0.9,0.4,1.8,0.8,2.7,0.9c0.9,0.1,1.5,0,2.1-0.3c0.8-0.4,1.3-1.1,1.6-1.9c0.2-0.4,0.3-0.8,0.3-1.2c0.1,0.1,0.3,0.1,0.4,0.2
	c0.5,0.4,0.6,0.9,0.8,1.4c0.2,0.6,0.5,1.2,0.8,1.5c0.2,0.2,0.7,0.5,1.2,0.6c0.9,0.2,2,0.2,2,0.2c0.5,0,1-0.4,1-1s-0.5-1-1-1
	c0,0-0.6,0-1.2-0.1C37.6,10.9,37.3,10.8,37.2,10.8L37.2,10.8L37.2,10.8z M29.5,3C28.1,3,27,4.1,27,5.5S28.1,8,29.5,8S32,6.9,32,5.5
	S30.9,3,29.5,3L29.5,3z M14.7,6.7c0,0,0.3-0.3,0.6-0.5C15.5,6.1,15.8,6,16,6c0.2,0,0.5,0.1,0.6,0.2c0.4,0.2,0.6,0.5,0.6,0.5
	c0.4,0.4,1,0.4,1.4,0c0,0,0.3-0.3,0.6-0.5C19.5,6.1,19.8,6,20,6s0.5,0.1,0.6,0.2c0.4,0.2,0.6,0.5,0.6,0.5c0.4,0.4,1,0.4,1.4,0
	c0.4-0.4,0.4-1,0-1.4c0,0-1.4-1.3-2.7-1.3c-0.7,0-1.5,0.4-2,0.7C17.5,4.4,16.7,4,16,4c-1.3,0-2.7,1.3-2.7,1.3c-0.4,0.4-0.4,1,0,1.4
	C13.7,7.1,14.3,7.1,14.7,6.7C14.7,6.7,14.7,6.7,14.7,6.7z M29.5,5C29.8,5,30,5.2,30,5.5S29.8,6,29.5,6S29,5.8,29,5.5S29.2,5,29.5,5
	L29.5,5z M34,2c0.5,0,1,0.5,1,1s-0.5,1-1,1s-1-0.5-1-1S33.5,2,34,2L34,2z M2.7,2.7c0,0,0.3-0.3,0.7-0.5C3.6,2.1,3.8,2,4,2
	c0.2,0,0.4,0.1,0.6,0.2C5,2.4,5.3,2.7,5.3,2.7c0.4,0.4,1,0.4,1.4,0c0,0,0.3-0.3,0.7-0.5C7.6,2.1,7.8,2,8,2c0.2,0,0.4,0.1,0.6,0.2
	C9,2.4,9.3,2.7,9.3,2.7c0.4,0.4,1,0.4,1.4,0c0.4-0.4,0.4-1,0-1.4C10.7,1.3,9.3,0,8,0C7.3,0,6.5,0.4,6,0.7C5.5,0.4,4.7,0,4,0
	C2.7,0,1.3,1.3,1.3,1.3c-0.4,0.4-0.4,1,0,1.4C1.7,3.1,2.3,3.1,2.7,2.7L2.7,2.7z"/>
</svg>
