<svg xmlns="http://www.w3.org/2000/svg" xmlns:xlink="http://www.w3.org/1999/xlink" version="1.1" x="0px" y="0px" viewBox="0 0 100 125" style="enable-background:new 0 0 100 100;" xml:space="preserve"><path d="M31.2,62.5c-0.1,0-7.8-3.3-10.4-9.1C18.1,47.5,20.6,39,20.6,39c0.1-0.3,0-0.6-0.2-0.8s-0.6-0.2-0.8-0.1  C19,38.4,6.8,45.4,5,57.9c0,0.2,0.1,0.5,0.3,0.7l1.2,1l-0.3,1.7c0,0.3,0.1,0.5,0.3,0.7c0.4,0.3,10.1,7.3,24.8,2c0,0,0,0,0,0  c0.3-0.1,0.4-0.4,0.4-0.7C31.7,62.9,31.5,62.6,31.2,62.5z M14.5,51.7c0.5,1,0,2.2-1,2.6c-1,0.5-2.2,0-2.6-1c-0.5-1,0-2.1,1-2.6  C12.8,50.3,14,50.7,14.5,51.7z M95,39.7c-0.6,2.3-4.3,4.2-7.1,4.3c-1.1,0-1.7,0.7-2.4,1.8c-0.5,0.7-1,1.4-1.9,2  c-0.5,0.3-1,0.6-1.5,0.8c-1.3,0.6-2.3,1.1-2.8,2.8c-0.5,1.5,0.1,2.5,0.9,3.7c0.3,0.5,0.7,1.1,1,1.7c0.4,0.8,0.4,1.8,0.5,2.7  c0.1,1.5,0.2,2.7,1.4,3.6c2.7,1.9,2.3,5.7,2.3,5.8c0,0.2-0.2,0.4-0.4,0.6c-0.2,0.1-0.4,0.1-0.6,0.1c0,0,0,0-0.1,0  c-0.2-0.1-6.3-2.7-10.6-9c-4.5-6.5-4.6-10.5-3.8-12.8c0.7-2.2,3.2-5.4,10.7-8c7.2-2.5,13.6-1,13.8-0.9c0.2,0,0.4,0.2,0.5,0.3  C95,39.3,95.1,39.5,95,39.7z M40.8,60.6c0.1,0.1,0.1,0.2,0.1,0.4c0,0.4-0.2,0.7-0.5,0.7c-0.1,0-0.1,0-0.2,0  c-0.1,0-10.7,0.3-14.6-11.5c-1,0.5-1.9,1-2.8,1.6c-0.1,0.1-0.3,0.1-0.4,0.1c-0.3,0-0.5-0.1-0.6-0.4c-0.2-0.4-0.1-0.8,0.2-1  c1-0.6,2.1-1.2,3.2-1.8c-3.3-12.5,6.2-17.6,6.3-17.6c0.3-0.2,0.7-0.1,1,0.2c0.2,0.3,0.2,0.7-0.1,1c-0.2,0.2-4.8,4.8-1.8,15.2  c3,10.5,9.5,12.2,9.7,12.3C40.5,60,40.8,60.3,40.8,60.6z M62.5,53.2c0.3,0.2,0.4,0.5,0.3,0.8c0,0.1,0,0.2,0,0.3  c-0.1,0.3-0.5,0.5-0.8,0.5c-0.1,0-0.1,0-0.2,0c-0.1,0-6.1-2.4-5.9-9.9c-0.8-0.1-1.7-0.2-2.5-0.2c-0.4,0-0.7-0.4-0.7-0.8  s0.4-0.7,0.8-0.7c0.8,0.1,1.7,0.1,2.5,0.2c1.1-8.2,8-8.9,8.1-8.9c0.4,0,0.7,0.2,0.8,0.6c0.1,0.4-0.1,0.7-0.5,0.9  c-0.1,0.1-3.8,1.6-4.5,8.1C59.2,50.7,62.5,53.2,62.5,53.2z M56.5,55.1c0,0.1,0,0.2,0,0.3c-0.1,0.4-0.4,0.6-0.7,0.6  c-0.1,0-0.1,0-0.2,0c-0.1,0-7.9-2.1-8.7-11.5c-1.3,0.1-2.5,0.1-3.8,0.3c0,0-0.1,0-0.1,0c-0.4,0-0.7-0.3-0.7-0.7  c0-0.4,0.2-0.8,0.7-0.8c1.3-0.1,2.6-0.2,3.9-0.3c0-10.7,8.7-12.6,8.8-12.6c0.4-0.1,0.7,0.1,0.9,0.5c0.1,0.4,0,0.7-0.4,0.9  c-0.2,0.1-4.6,2.6-4.6,11.1c0,8.5,4.5,11.2,4.6,11.4C56.4,54.5,56.6,54.8,56.5,55.1z M49.5,57.6c0.1,0.1,0.1,0.2,0.1,0.4  c0,0.4-0.3,0.6-0.6,0.7c-0.1,0-0.1,0-0.2,0c-0.1,0-10.1-0.7-12.2-12.4c0,0,0-0.1,0-0.1c-1.4,0.4-2.8,0.8-4.2,1.2c-0.1,0-0.2,0-0.2,0  c-0.3,0-0.6-0.2-0.7-0.5c-0.1-0.4,0.1-0.8,0.5-1c1.5-0.5,3-0.9,4.5-1.3c-1.1-10.4,7.2-13.9,7.3-13.9c0.4-0.1,0.7,0,0.9,0.3  c0.2,0.3,0.1,0.7-0.2,1c-0.2,0.1-4.6,3.8-2.9,13.2c1.7,9.5,7.4,11.6,7.5,11.6C49.3,56.9,49.5,57.2,49.5,57.6z M67.6,45.9  c0.4,0.1,0.7,0.2,1.1,0.3c0.4,0.1,0.6,0.6,0.5,0.9c-0.1,0.3-0.4,0.5-0.7,0.5c-0.1,0-0.2,0-0.2,0c-0.4-0.1-0.8-0.2-1.1-0.3  c-1,3.5,0.3,5.2,0.4,5.3c0.2,0.2,0.2,0.6,0.1,0.8c0,0.1-0.1,0.2-0.1,0.2c-0.2,0.3-0.6,0.4-0.9,0.3c-0.1,0-0.1,0-0.2-0.1  c0,0-3.6-2.6-2.4-7.4c-0.7-0.2-1.4-0.4-2.2-0.5c-0.4-0.1-0.7-0.5-0.6-0.9c0.1-0.4,0.5-0.7,0.9-0.6c0.8,0.2,1.5,0.4,2.3,0.6  c2.2-5.3,7-4.5,7.1-4.5c0.4,0.1,0.6,0.4,0.6,0.8c0,0.4-0.3,0.7-0.7,0.7C71.4,41.9,69.1,42.3,67.6,45.9z"/><text x="0" y="115" fill="#000000" font-size="5px" font-weight="bold" font-family="'Helvetica Neue', Helvetica, Arial-Unicode, Arial, Sans-serif">Created by T. Kiefer Robertson</text><text x="0" y="120" fill="#000000" font-size="5px" font-weight="bold" font-family="'Helvetica Neue', Helvetica, Arial-Unicode, Arial, Sans-serif">from the Noun Project</text></svg>