<?xml version="1.0" encoding="utf-8"?>
<!-- Generator: Adobe Illustrator 28.3.0, SVG Export Plug-In . SVG Version: 6.00 Build 0)  -->
<svg version="1.1" id="Layer_1" xmlns="http://www.w3.org/2000/svg" xmlns:xlink="http://www.w3.org/1999/xlink" x="0px" y="0px"
	 viewBox="0 0 1080 1080" style="enable-background:new 0 0 1080 1080;" xml:space="preserve">
<style type="text/css">
	.st0{fill:#FFFFFF;}
</style>
<path class="st0" d="M316.6,676c-1.2,0-92.6-39.2-123.5-108c-32.1-70-2.4-171-2.4-171c1.2-3.6,0-7.1-2.4-9.5
	c-2.4-2.4-7.1-2.4-9.5-1.2c-7.1,3.6-152,86.7-173.3,235.1c0,2.4,1.2,5.9,3.6,8.3l14.2,11.9l-3.6,20.2c0,3.6,1.2,5.9,3.6,8.3
	c4.7,3.6,119.9,86.7,294.4,23.7l0,0c3.6-1.2,4.7-4.7,4.7-8.3C322.5,680.8,320.1,677.2,316.6,676z M118.3,547.8
	c5.9,11.9,0,26.1-11.9,30.9c-11.9,5.9-26.1,0-30.9-11.9c-5.9-11.9,0-24.9,11.9-30.9C98.1,531.2,112.4,535.9,118.3,547.8z
	 M1074,405.4c-7.1,27.3-51.1,49.9-84.3,51.1c-13.1,0-20.2,8.3-28.5,21.4c-5.9,8.3-11.9,16.6-22.6,23.7c-5.9,3.6-11.9,7.1-17.8,9.5
	c-15.4,7.1-27.3,13.1-33.2,33.2c-5.9,17.8,1.2,29.7,10.7,43.9c3.6,5.9,8.3,13.1,11.9,20.2c4.7,9.5,4.7,21.4,5.9,32.1
	c1.2,17.8,2.4,32.1,16.6,42.7c32.1,22.6,27.3,67.7,27.3,68.9c0,2.4-2.4,4.7-4.7,7.1c-2.4,1.2-4.7,1.2-7.1,1.2c0,0,0,0-1.2,0
	c-2.4-1.2-74.8-32.1-125.8-106.9c-53.4-77.2-54.6-124.7-45.1-152c8.3-26.1,38-64.1,127-95c85.5-29.7,161.5-11.9,163.8-10.7
	c2.4,0,4.7,2.4,5.9,3.6C1074,400.6,1075.2,403,1074,405.4z M430.5,653.5c1.2,1.2,1.2,2.4,1.2,4.7c0,4.7-2.4,8.3-5.9,8.3
	c-1.2,0-1.2,0-2.4,0c-1.2,0-127,3.6-173.3-136.5c-11.9,5.9-22.6,11.9-33.2,19c-1.2,1.2-3.6,1.2-4.7,1.2c-3.6,0-5.9-1.2-7.1-4.7
	c-2.4-4.7-1.2-9.5,2.4-11.9c11.9-7.1,24.9-14.2,38-21.4c-39.2-148.4,73.6-209,74.8-209c3.6-2.4,8.3-1.2,11.9,2.4
	c2.4,3.6,2.4,8.3-1.2,11.9c-2.4,2.4-57,57-21.4,180.5c35.6,124.7,112.8,144.8,115.2,146C427,646.4,430.5,649.9,430.5,653.5z
	 M688.2,565.6c3.6,2.4,4.7,5.9,3.6,9.5c0,1.2,0,2.4,0,3.6c-1.2,3.6-5.9,5.9-9.5,5.9c-1.2,0-1.2,0-2.4,0c-1.2,0-72.4-28.5-70-117.5
	c-9.5-1.2-20.2-2.4-29.7-2.4c-4.7,0-8.3-4.7-8.3-9.5s4.7-8.3,9.5-8.3c9.5,1.2,20.2,1.2,29.7,2.4c13.1-97.4,95-105.7,96.2-105.7
	c4.7,0,8.3,2.4,9.5,7.1c1.2,4.7-1.2,8.3-5.9,10.7c-1.2,1.2-45.1,19-53.4,96.2C649,535.9,688.2,565.6,688.2,565.6z M616.9,588.2
	c0,1.2,0,2.4,0,3.6c-1.2,4.7-4.7,7.1-8.3,7.1c-1.2,0-1.2,0-2.4,0S512.5,573.9,503,462.3c-15.4,1.2-29.7,1.2-45.1,3.6h-1.2
	c-4.7,0-8.3-3.6-8.3-8.3s2.4-9.5,8.3-9.5c15.4-1.2,30.9-2.4,46.3-3.6c0-127,103.3-149.6,104.5-149.6c4.7-1.2,8.3,1.2,10.7,5.9
	c1.2,4.7,0,8.3-4.7,10.7c-2.4,1.2-54.6,30.9-54.6,131.8s53.4,133,54.6,135.3C615.8,581.1,618.1,584.6,616.9,588.2z M533.8,617.9
	c1.2,1.2,1.2,2.4,1.2,4.7c0,4.7-3.6,7.1-7.1,8.3c-1.2,0-1.2,0-2.4,0c-1.2,0-119.9-8.3-144.8-147.2v-1.2
	c-16.6,4.7-33.2,9.5-49.9,14.2c-1.2,0-2.4,0-2.4,0c-3.6,0-7.1-2.4-8.3-5.9c-1.2-4.7,1.2-9.5,5.9-11.9c17.8-5.9,35.6-10.7,53.4-15.4
	c-13.1-123.5,85.5-165,86.7-165c4.7-1.2,8.3,0,10.7,3.6c2.4,3.6,1.2,8.3-2.4,11.9c-2.4,1.2-54.6,45.1-34.4,156.7
	c20.2,112.8,87.9,137.7,89,137.7C531.5,609.6,533.8,613.1,533.8,617.9z M748.7,479c4.7,1.2,8.3,2.4,13.1,3.6
	c4.7,1.2,7.1,7.1,5.9,10.7c-1.2,3.6-4.7,5.9-8.3,5.9c-1.2,0-2.4,0-2.4,0c-4.7-1.2-9.5-2.4-13.1-3.6c-11.9,41.6,3.6,61.7,4.7,62.9
	c2.4,2.4,2.4,7.1,1.2,9.5c0,1.2-1.2,2.4-1.2,2.4c-2.4,3.6-7.1,4.7-10.7,3.6c-1.2,0-1.2,0-2.4-1.2c0,0-42.7-30.9-28.5-87.9
	c-8.3-2.4-16.6-4.7-26.1-5.9c-4.7-1.2-8.3-5.9-7.1-10.7c1.2-4.7,5.9-8.3,10.7-7.1c9.5,2.4,17.8,4.7,27.3,7.1
	c26.1-62.9,83.1-53.4,84.3-53.4c4.7,1.2,7.1,4.7,7.1,9.5c0,4.7-3.6,8.3-8.3,8.3C793.8,431.5,766.5,436.2,748.7,479z"/>
</svg>
